# xmcd
#
# Track frame offsets:
# 150
# 16847
# 32539
# 48741
# 59603
# 74704
# 90857
# 107289
# 120819
# 136530
#
# Disc length: 2277 seconds
#
# Revision: 1
# Processed by: cddbd v1.5.2PL0 Copyright (c) Steve Scherf et al.
# Submitted via: CedeCatalogueitor 2.6.0.6 http://personales.ya.com/cdcatalogueitor
#
DISCID=7308e30a
DTITLE=Transoceánico - Montevideo
DYEAR=1900
DGENRE=
TTITLE0=Candombe
TTITLE1=Nunca Sabrás
TTITLE2=Rápido
TTITLE3=Te Veo Y No Te Veo
TTITLE4=Pasan Y Se Van
TTITLE5=Zamba Acuática
TTITLE6=Renos En La Autopista
TTITLE7=Dejando Una Señal
TTITLE8=Autoinmunidad
TTITLE9=Transoceánico
EXTD=
EXTT0=
EXTT1=
EXTT2=
EXTT3=
EXTT4=
EXTT5=
EXTT6=
EXTT7=
EXTT8=
EXTT9=
PLAYORDER=
